<svg xmlns="http://www.w3.org/2000/svg" viewBox="0 0 1200 675" role="img" aria-label="Smart Complaint">
  <defs>
    <linearGradient id="g" x1="0" y1="0" x2="1" y2="1">
      <stop offset="0" stop-color="#ea580c"/>
      <stop offset="0.55" stop-color="#ef4444"/>
      <stop offset="1" stop-color="#7c2d12"/>
    </linearGradient>
    <radialGradient id="r" cx="30%" cy="20%" r="70%">
      <stop offset="0" stop-color="#ffffff" stop-opacity="0.55"/>
      <stop offset="1" stop-color="#ffffff" stop-opacity="0"/>
    </radialGradient>
    <filter id="shadow" x="-20%" y="-20%" width="140%" height="140%">
      <feDropShadow dx="0" dy="24" stdDeviation="22" flood-color="#000000" flood-opacity="0.22"/>
    </filter>
  </defs>
  <rect width="1200" height="675" rx="56" fill="url(#g)"/>
  <rect width="1200" height="675" rx="56" fill="url(#r)"/>
  <g opacity="0.16" stroke="#fff" stroke-width="3">
    <path d="M0 150 H1200 M0 300 H1200 M0 450 H1200 M0 600 H1200"/>
    <path d="M150 0 V675 M300 0 V675 M450 0 V675 M600 0 V675 M750 0 V675 M900 0 V675 M1050 0 V675"/>
  </g>
  <circle cx="1000" cy="130" r="145" fill="#fff" opacity="0.12"/>
  <circle cx="160" cy="560" r="170" fill="#fff" opacity="0.13"/>
  <g filter="url(#shadow)">
    <rect x="92" y="92" width="1016" height="491" rx="42" fill="#ffffff" opacity="0.18"/>
    <rect x="130" y="130" width="940" height="415" rx="34" fill="#0f172a" opacity="0.14"/>
  </g>
  <text x="170" y="280" font-family="Arial, Helvetica, sans-serif" font-size="112" font-weight="800" fill="#fff">JAVA</text>
  <text x="170" y="385" font-family="Arial, Helvetica, sans-serif" font-size="54" font-weight="800" fill="#fff">Smart Complaint</text>
  <text x="174" y="448" font-family="Arial, Helvetica, sans-serif" font-size="30" font-weight="600" fill="#fff" opacity="0.84">Java · Complaint Management System</text>
  <g fill="#fff" opacity="0.85">
    <circle cx="930" cy="410" r="9"/><circle cx="975" cy="410" r="9"/><circle cx="1020" cy="410" r="9"/>
    <rect x="862" y="454" width="210" height="16" rx="8" opacity="0.65"/>
    <rect x="900" y="486" width="172" height="16" rx="8" opacity="0.45"/>
  </g>
</svg>